<?xml version="1.0" standalone="no"?><!DOCTYPE svg PUBLIC "-//W3C//DTD SVG 1.1//EN" "http://www.w3.org/Graphics/SVG/1.1/DTD/svg11.dtd"><svg t="1754994520982" class="icon" viewBox="0 0 1024 1024" version="1.1" xmlns="http://www.w3.org/2000/svg" p-id="55575" xmlns:xlink="http://www.w3.org/1999/xlink" width="96" height="96"><path d="M804.2 145.5H754v-26c0-22-18-40-40-40s-40 18-40 40v26H350v-26c0-22-18-40-40-40s-40 18-40 40v26h-50.2C152.7 145.5 96 202.2 96 269.3v551.4c0 67.1 56.7 123.8 123.8 123.8h584.4c67.1 0 123.8-56.7 123.8-123.8V269.3c0-67.1-56.7-123.8-123.8-123.8zM601.4 750.2h-176c-21.3 0-35.1-12.8-35.1-32.6s13.8-32.6 35.1-32.6h49.1V471.6c-3.9 0.7-7.8 1.7-11.9 2.6-11 2.5-22.2 5.1-34.8 5.1-24.1 0-39.6-12-39.6-30.6s12.8-29.2 38.2-31.6c31.2-3 45.7-9.7 57.3-15 9.4-4.4 17.5-8.1 30.8-8.1 22.6 0 36.1 15 36.1 40.1v250.7h50.7c21.3 0 34.7 12.7 34.7 32.8s-13.3 32.6-34.6 32.6z" p-id="55576" fill="#515151"></path></svg>